<svg width="1479" height="808" viewBox="0 0 1479 808" fill="none" xmlns="http://www.w3.org/2000/svg">
<rect x="248" width="100" height="807" fill="#D9D9D9"/>
<rect x="124" y="131" width="100" height="500" fill="#D9D9D9"/>
<rect y="231" width="100" height="300" fill="#D9D9D9"/>
<rect x="348" y="331" width="200" height="104" fill="#D9D9D9"/>
<rect width="100" height="807" transform="matrix(-1 0 0 1 1231 1)" fill="#D9D9D9"/>
<rect width="100" height="500" transform="matrix(-1 0 0 1 1355 132)" fill="#D9D9D9"/>
<rect width="100" height="300" transform="matrix(-1 0 0 1 1479 232)" fill="#D9D9D9"/>
<rect width="200" height="104" transform="matrix(-1 0 0 1 1131 332)" fill="#D9D9D9"/>
<path d="M865.739 367.56L865.613 396.692C865.613 400.964 866.158 404.169 867.247 406.305C868.421 408.344 870.809 409.364 874.413 409.364H906.217C910.072 409.461 912 412.86 912 419.56C912 424.707 911.455 428.445 910.366 430.776C909.276 433.106 907.055 434.32 903.703 434.417C891.886 434.806 880.196 435 868.63 435C857.065 435 842.315 434.903 824.381 434.709C821.364 434.709 818.891 433.883 816.964 432.232C815.12 430.485 814.072 428.105 813.821 425.095C813.151 416.647 812.815 403.344 812.815 385.185C812.815 366.929 812.983 354.645 813.318 348.333C813.737 341.924 814.533 337.7 815.707 335.661C816.88 333.525 819.185 332.457 822.621 332.457H856.311C859.831 332.457 862.135 333.525 863.225 335.661C864.398 337.797 865.11 341.245 865.362 346.003C865.613 350.761 865.739 357.947 865.739 367.56Z" fill="#D9D9D9"/>
<path d="M757.83 367.56L757.705 396.692C757.705 400.964 758.249 404.169 759.339 406.305C760.512 408.344 762.901 409.364 766.504 409.364H798.309C802.164 409.461 804.091 412.86 804.091 419.56C804.091 424.707 803.547 428.445 802.457 430.776C801.368 433.106 799.147 434.32 795.795 434.417C783.978 434.806 772.287 435 760.722 435C749.156 435 734.407 434.903 716.472 434.709C713.455 434.709 710.983 433.883 709.055 432.232C707.211 430.485 706.164 428.105 705.912 425.095C705.242 416.647 704.907 403.344 704.907 385.185C704.907 366.929 705.074 354.645 705.41 348.333C705.829 341.924 706.625 337.7 707.798 335.661C708.971 333.525 711.276 332.457 714.712 332.457H748.402C751.922 332.457 754.227 333.525 755.316 335.661C756.49 337.797 757.202 341.245 757.453 346.003C757.705 350.761 757.83 357.947 757.83 367.56Z" fill="#D9D9D9"/>
<path d="M649.848 339.303L690.955 419.852C692.631 423.056 693.469 425.775 693.469 428.008C693.469 430.145 692.715 431.747 691.206 432.815C689.698 433.883 687.938 434.417 685.927 434.417H645.448C641.342 434.417 638.702 433.543 637.529 431.795C637.193 431.213 636.732 430.193 636.146 428.737L632.5 419.706C631.411 416.89 628.855 415.288 624.832 414.899H601.073C599.313 414.899 597.972 415.093 597.05 415.482C596.128 415.87 595.374 416.744 594.787 418.104L589.885 429.902C589.047 431.65 588.125 432.864 587.119 433.543C586.113 434.126 584.647 434.417 582.719 434.417H571.405C568.137 434.417 566.377 433.058 566.126 430.339C566.042 429.95 566 429.562 566 429.174C566 426.94 566.629 424.804 567.886 422.765L607.233 342.361C611.004 334.787 617.122 331 625.586 331H635.643C642.347 331 647.082 333.768 649.848 339.303ZM609.118 376.591L603.336 389.846C603 390.72 602.833 391.497 602.833 392.176C602.833 394.701 603.88 395.964 605.976 395.964H617.415C619.175 395.964 620.39 395.478 621.061 394.507C621.731 393.439 622.066 392.516 622.066 391.739C622.066 390.963 621.941 390.186 621.689 389.409L616.912 376.882C615.907 374.358 614.608 373.095 613.015 373.095C611.423 373.095 610.124 374.26 609.118 376.591Z" fill="#D9D9D9"/>
</svg>
