<svg width="1479" height="808" viewBox="0 0 1479 808" fill="none" xmlns="http://www.w3.org/2000/svg">
<rect x="248" width="100" height="807" fill="#D9D9D9"/>
<rect x="124" y="131" width="100" height="500" fill="#D9D9D9"/>
<rect y="231" width="100" height="300" fill="#D9D9D9"/>
<rect x="348" y="331" width="200" height="104" fill="#D9D9D9"/>
<rect width="100" height="807" transform="matrix(-1 0 0 1 1231 1)" fill="#D9D9D9"/>
<rect width="100" height="500" transform="matrix(-1 0 0 1 1355 132)" fill="#D9D9D9"/>
<rect width="100" height="300" transform="matrix(-1 0 0 1 1479 232)" fill="#D9D9D9"/>
<rect width="200" height="104" transform="matrix(-1 0 0 1 1131 332)" fill="#D9D9D9"/>
<path d="M865.739 303.297L865.613 478.546C865.613 504.25 866.158 523.527 867.247 536.379C868.421 548.646 870.809 554.78 874.413 554.78H906.217C910.072 555.364 912 575.81 912 616.118C912 647.078 911.455 669.569 910.366 683.589C909.276 697.609 907.055 704.911 903.703 705.495C891.886 707.832 880.196 709 868.63 709C857.065 709 842.315 708.416 824.381 707.247C821.364 707.247 818.891 702.282 816.964 692.351C815.12 681.836 814.072 667.524 813.821 649.415C813.151 598.593 812.815 518.562 812.815 409.323C812.815 299.5 812.983 225.603 813.318 187.632C813.737 149.077 814.533 123.666 815.707 111.398C816.88 98.5464 819.185 92.1206 822.621 92.1206H856.311C859.831 92.1206 862.135 98.5464 863.225 111.398C864.398 124.25 865.11 144.988 865.362 173.612C865.613 202.236 865.739 245.464 865.739 303.297Z" fill="#D9D9D9"/>
<path d="M757.83 303.297L757.705 478.546C757.705 504.25 758.249 523.527 759.339 536.379C760.512 548.646 762.901 554.78 766.504 554.78H798.309C802.164 555.364 804.091 575.81 804.091 616.118C804.091 647.078 803.547 669.569 802.457 683.589C801.368 697.609 799.147 704.911 795.795 705.495C783.978 707.832 772.287 709 760.722 709C749.156 709 734.407 708.416 716.472 707.247C713.455 707.247 710.983 702.282 709.055 692.351C707.211 681.836 706.164 667.524 705.912 649.415C705.242 598.593 704.907 518.562 704.907 409.323C704.907 299.5 705.074 225.603 705.41 187.632C705.829 149.077 706.625 123.666 707.798 111.398C708.971 98.5464 711.276 92.1206 714.712 92.1206H748.402C751.922 92.1206 754.227 98.5464 755.316 111.398C756.49 124.25 757.202 144.988 757.453 173.612C757.705 202.236 757.83 245.464 757.83 303.297Z" fill="#D9D9D9"/>
<path d="M649.848 133.305L690.955 617.87C692.631 637.148 693.469 653.504 693.469 666.94C693.469 679.792 692.715 689.431 691.206 695.856C689.698 702.282 687.938 705.495 685.927 705.495H645.448C641.342 705.495 638.702 700.238 637.529 689.723C637.193 686.218 636.732 680.084 636.146 671.321L632.5 616.994C631.411 600.053 628.855 590.414 624.832 588.078H601.073C599.313 588.078 597.972 589.246 597.05 591.583C596.128 593.919 595.374 599.177 594.787 607.355L589.885 678.332C589.047 688.846 588.125 696.149 587.119 700.238C586.113 703.743 584.647 705.495 582.719 705.495H571.405C568.137 705.495 566.377 697.317 566.126 680.96C566.042 678.623 566 676.287 566 673.95C566 660.514 566.629 647.663 567.886 635.395L607.233 151.706C611.004 106.141 617.122 83.3584 625.586 83.3584H635.643C642.347 83.3584 647.082 100.007 649.848 133.305ZM609.118 357.624L603.336 437.363C603 442.62 602.833 447.294 602.833 451.383C602.833 466.571 603.88 474.165 605.976 474.165H617.415C619.175 474.165 620.39 471.245 621.061 465.403C621.731 458.977 622.066 453.428 622.066 448.754C622.066 444.081 621.941 439.408 621.689 434.734L616.912 359.377C615.907 344.189 614.608 336.594 613.015 336.594C611.423 336.594 610.124 343.604 609.118 357.624Z" fill="#6CCC64"/>
</svg>
